<svg xmlns="http://www.w3.org/2000/svg" xmlns:xlink="http://www.w3.org/1999/xlink" width="500" zoomAndPan="magnify" viewBox="0 0 375 374.999991" height="500" preserveAspectRatio="xMidYMid meet" version="1.0"><defs><g/><clipPath id="c81562594f"><path d="M 120.660156 145.050781 L 251.160156 145.050781 L 251.160156 212 L 120.660156 212 Z M 120.660156 145.050781 " clip-rule="nonzero"/></clipPath></defs><g fill="#17265c" fill-opacity="1"><g transform="translate(116.796259, 248.324532)"><g><path d="M 1.53125 -16.953125 C 1.53125 -20.265625 2.222656 -23.222656 3.609375 -25.828125 C 5.003906 -28.429688 6.976562 -30.457031 9.53125 -31.90625 C 12.082031 -33.363281 15.019531 -34.09375 18.34375 -34.09375 C 22.550781 -34.09375 26.085938 -32.96875 28.953125 -30.71875 C 31.828125 -28.46875 33.679688 -25.410156 34.515625 -21.546875 L 24.421875 -21.546875 C 23.804688 -22.816406 22.960938 -23.785156 21.890625 -24.453125 C 20.828125 -25.128906 19.59375 -25.46875 18.1875 -25.46875 C 16.019531 -25.46875 14.289062 -24.691406 13 -23.140625 C 11.707031 -21.597656 11.0625 -19.535156 11.0625 -16.953125 C 11.0625 -14.328125 11.707031 -12.238281 13 -10.6875 C 14.289062 -9.144531 16.019531 -8.375 18.1875 -8.375 C 19.59375 -8.375 20.828125 -8.707031 21.890625 -9.375 C 22.960938 -10.050781 23.804688 -11.023438 24.421875 -12.296875 L 34.515625 -12.296875 C 33.679688 -8.441406 31.828125 -5.390625 28.953125 -3.140625 C 26.085938 -0.890625 22.550781 0.234375 18.34375 0.234375 C 15.019531 0.234375 12.082031 -0.488281 9.53125 -1.9375 C 6.976562 -3.394531 5.003906 -5.421875 3.609375 -8.015625 C 2.222656 -10.617188 1.53125 -13.597656 1.53125 -16.953125 Z M 1.53125 -16.953125 "/></g></g></g><g fill="#17265c" fill-opacity="1"><g transform="translate(150.213643, 248.324532)"><g><path d="M 11.875 -33.75 L 11.875 -14.171875 C 11.875 -12.347656 12.296875 -10.941406 13.140625 -9.953125 C 13.984375 -8.960938 15.269531 -8.46875 17 -8.46875 C 18.71875 -8.46875 20.015625 -8.96875 20.890625 -9.96875 C 21.773438 -10.976562 22.21875 -12.378906 22.21875 -14.171875 L 22.21875 -33.75 L 31.59375 -33.75 L 31.59375 -14.171875 C 31.59375 -11.078125 30.9375 -8.4375 29.625 -6.25 C 28.320312 -4.0625 26.546875 -2.414062 24.296875 -1.3125 C 22.046875 -0.21875 19.546875 0.328125 16.796875 0.328125 C 14.054688 0.328125 11.609375 -0.21875 9.453125 -1.3125 C 7.296875 -2.414062 5.601562 -4.050781 4.375 -6.21875 C 3.144531 -8.394531 2.53125 -11.046875 2.53125 -14.171875 L 2.53125 -33.75 Z M 11.875 -33.75 "/></g></g></g><g fill="#17265c" fill-opacity="1"><g transform="translate(181.428702, 248.324532)"><g><path d="M 19.765625 0 L 13.0625 -12.453125 L 12.0625 -12.453125 L 12.0625 0 L 2.6875 0 L 2.6875 -33.75 L 17.46875 -33.75 C 20.1875 -33.75 22.484375 -33.273438 24.359375 -32.328125 C 26.242188 -31.390625 27.664062 -30.097656 28.625 -28.453125 C 29.582031 -26.816406 30.0625 -24.976562 30.0625 -22.9375 C 30.0625 -20.632812 29.429688 -18.613281 28.171875 -16.875 C 26.910156 -15.132812 25.066406 -13.898438 22.640625 -13.171875 L 30.25 0 Z M 12.0625 -18.859375 L 16.703125 -18.859375 C 17.984375 -18.859375 18.941406 -19.160156 19.578125 -19.765625 C 20.210938 -20.378906 20.53125 -21.257812 20.53125 -22.40625 C 20.53125 -23.488281 20.203125 -24.34375 19.546875 -24.96875 C 18.898438 -25.59375 17.953125 -25.90625 16.703125 -25.90625 L 12.0625 -25.90625 Z M 12.0625 -18.859375 "/></g></g></g><g fill="#17265c" fill-opacity="1"><g transform="translate(210.202043, 248.324532)"><g><path d="M 12.0625 -33.75 L 12.0625 0 L 2.6875 0 L 2.6875 -33.75 Z M 12.0625 -33.75 "/></g></g></g><g fill="#17265c" fill-opacity="1"><g transform="translate(222.074891, 248.324532)"><g><path d="M 18.859375 0.328125 C 15.703125 0.328125 12.796875 -0.410156 10.140625 -1.890625 C 7.492188 -3.378906 5.394531 -5.4375 3.84375 -8.0625 C 2.300781 -10.695312 1.53125 -13.675781 1.53125 -17 C 1.53125 -20.3125 2.300781 -23.285156 3.84375 -25.921875 C 5.394531 -28.554688 7.492188 -30.609375 10.140625 -32.078125 C 12.796875 -33.546875 15.703125 -34.28125 18.859375 -34.28125 C 22.054688 -34.28125 24.96875 -33.546875 27.59375 -32.078125 C 30.226562 -30.609375 32.3125 -28.554688 33.84375 -25.921875 C 35.375 -23.285156 36.140625 -20.3125 36.140625 -17 C 36.140625 -13.675781 35.375 -10.695312 33.84375 -8.0625 C 32.3125 -5.4375 30.222656 -3.378906 27.578125 -1.890625 C 24.929688 -0.410156 22.023438 0.328125 18.859375 0.328125 Z M 18.859375 -8.375 C 21.253906 -8.375 23.144531 -9.15625 24.53125 -10.71875 C 25.925781 -12.28125 26.625 -14.375 26.625 -17 C 26.625 -19.675781 25.925781 -21.785156 24.53125 -23.328125 C 23.144531 -24.878906 21.253906 -25.65625 18.859375 -25.65625 C 16.429688 -25.65625 14.53125 -24.878906 13.15625 -23.328125 C 11.789062 -21.785156 11.109375 -19.675781 11.109375 -17 C 11.109375 -14.34375 11.789062 -12.238281 13.15625 -10.6875 C 14.53125 -9.144531 16.429688 -8.375 18.859375 -8.375 Z M 18.859375 -8.375 "/></g></g></g><g clip-path="url(#c81562594f)"><path fill="#ff914d" d="M 127.714844 183.835938 C 123.515625 186.390625 120.699219 191.476562 120.699219 196.734375 C 120.699219 204.734375 127.25 211.285156 135.246094 211.285156 C 169.074219 211.285156 202.898438 211.285156 236.707031 211.285156 C 244.703125 211.285156 251.253906 204.734375 251.253906 196.734375 C 251.253906 189.160156 245.375 182.886719 237.949219 182.234375 C 238.308594 180.851562 238.339844 179.933594 238.339844 179.917969 C 238.542969 178.890625 238.652344 177.820312 238.652344 176.730469 C 238.652344 167.472656 231.15625 159.972656 221.894531 159.972656 C 220.261719 159.972656 218.691406 160.207031 217.214844 160.640625 C 213.183594 151.570312 205.53125 145.285156 194.996094 145.285156 C 189.238281 145.285156 183.964844 147.355469 179.886719 150.777344 C 176.898438 149.207031 173.523438 148.167969 170.132812 148.167969 C 160.269531 148.167969 152.273438 156.164062 152.273438 166.027344 C 152.273438 166.402344 152.289062 166.773438 152.300781 167.132812 C 150.234375 166.292969 147.964844 165.828125 145.582031 165.828125 C 135.402344 165.820312 127.390625 173.800781 127.714844 183.835938 Z M 183.945312 194.027344 C 183.945312 190.359375 186.933594 187.371094 190.605469 187.371094 C 194.292969 187.371094 197.265625 190.359375 197.265625 194.027344 C 197.265625 196.441406 196.007812 198.542969 194.089844 199.707031 C 197.53125 206.800781 209.648438 207.332031 212.152344 207.363281 L 236.707031 207.363281 C 242.523438 207.363281 247.316406 202.570312 247.316406 196.738281 C 247.316406 191.195312 242.976562 186.53125 237.453125 186.140625 L 236.488281 186.078125 C 235.058594 188.816406 232.523438 191.898438 228.023438 193.984375 L 228.023438 194 C 228.023438 197.6875 225.050781 200.660156 221.363281 200.660156 C 217.691406 200.660156 214.703125 197.6875 214.703125 194 C 214.703125 190.332031 217.691406 187.359375 221.363281 187.359375 C 223.246094 187.359375 224.945312 188.136719 226.15625 189.378906 C 239.707031 183.015625 236.300781 163.910156 221.890625 163.910156 C 220.785156 163.910156 219.683594 164.050781 218.605469 164.332031 C 219.558594 167.304688 219.851562 169.652344 219.742188 173.839844 C 221.765625 174.988281 223.136719 177.152344 223.136719 179.644531 C 223.136719 183.3125 220.164062 186.300781 216.476562 186.300781 C 212.804688 186.300781 209.816406 183.332031 209.816406 179.644531 C 209.816406 176.421875 212.101562 173.746094 215.136719 173.121094 C 215.429688 165.996094 212.023438 159.183594 211.839844 158.824219 C 208.355469 152.941406 201.988281 149.222656 194.988281 149.222656 C 190.789062 149.222656 186.738281 150.542969 183.394531 153.019531 C 186.273438 155.195312 189.273438 158.480469 190.738281 163.210938 C 193.679688 163.894531 195.859375 166.539062 195.859375 169.683594 C 195.859375 173.355469 192.871094 176.34375 189.199219 176.34375 C 185.527344 176.34375 182.539062 173.355469 182.539062 169.683594 C 182.539062 167.300781 183.785156 165.230469 185.652344 164.050781 C 182.601562 156.320312 175.210938 153.066406 174.929688 152.941406 C 173.40625 152.382812 171.773438 152.085938 170.121094 152.085938 C 162.421875 152.085938 156.199219 158.328125 156.199219 166.027344 C 156.199219 166.308594 156.199219 166.605469 156.214844 166.898438 L 156.277344 167.863281 C 160.074219 169.621094 165.441406 173.964844 169.5 182.503906 C 169.78125 182.472656 170.0625 182.457031 170.34375 182.457031 C 174.03125 182.457031 177.003906 185.429688 177.003906 189.097656 C 177.003906 192.785156 174.03125 195.757812 170.34375 195.757812 C 166.671875 195.757812 163.683594 192.785156 163.683594 189.097656 C 163.683594 187.449219 164.289062 185.941406 165.285156 184.789062 C 162.375 177.460938 153.914062 169.742188 145.574219 169.742188 C 138.042969 169.742188 131.914062 175.71875 131.648438 183.203125 C 134.746094 183.28125 140.160156 184.617188 143.660156 187.714844 C 144.609375 187.203125 145.699219 186.90625 146.847656 186.90625 C 150.519531 186.90625 153.507812 189.894531 153.507812 193.566406 C 153.507812 197.238281 150.519531 200.226562 146.847656 200.226562 C 143.179688 200.226562 140.1875 197.238281 140.1875 193.566406 C 140.1875 192.945312 140.285156 192.339844 140.4375 191.761719 C 136.171875 188.417969 130.292969 186.050781 126.949219 190.203125 C 125.484375 192.007812 124.660156 194.328125 124.628906 196.738281 C 124.535156 202.574219 129.40625 207.363281 135.242188 207.363281 L 195.347656 207.363281 C 193.03125 205.792969 191.097656 203.628906 190.011719 200.65625 C 186.605469 200.359375 183.945312 197.511719 183.945312 194.027344 Z M 183.945312 194.027344 " fill-opacity="1" fill-rule="evenodd"/></g></svg>