<svg width="50" height="50" viewBox="-2 -2 50 50" fill="none" xmlns="http://www.w3.org/2000/svg">
<defs>
  <style>
    :root {
      --cat-color: #1A1A1A;
      --cat-outline: #FFFFFF;
    }
  </style>
  <filter id="cat-outline" x="-20%" y="-20%" width="140%" height="140%">
    <feMorphology operator="dilate" radius="1" in="SourceAlpha" result="dilated"/>
    <feFlood flood-color="var(--cat-outline)" result="flood"/>
    <feComposite in="flood" in2="dilated" operator="in" result="outline"/>
    <feMerge>
      <feMergeNode in="outline"/>
      <feMergeNode in="SourceGraphic"/>
    </feMerge>
  </filter>
</defs>
<g id="cat-content" filter="url(#cat-outline)">
<path d="M33 15V14H31V13H24.5H18V16H15V17H14V20.5H15V23.5H16V24.5H17V25.5H18V26.5H20.5V27.5H21.5V36.5H39V23H38V20H37V18H36V17H35V16H34V15H33Z" fill="var(--cat-color)"/>
<path d="M24 33V32H25V31H38V32H39V35H38V38H37V40H36V42H21V41H20V39H21V37H22V35H23V33H24Z" fill="#999797"/>
<path d="M20 41H21V42H36V44H35H22V43H21V42H20V41Z" fill="#605E5E"/>
<path d="M36 44H35V42H36V40H37V38H38V35H39V33H40V35.5H39V38.5H38V41H37V43H36V44Z" fill="#222222"/>
<rect x="22" y="41" width="13" height="1" fill="#D7D6D6"/>
<rect x="20" y="39" width="1" height="1" fill="#D9D9D9"/>
<rect x="21" y="40" width="1" height="1" fill="#D9D9D9"/>
<rect x="35" y="40" width="1" height="1" fill="#D9D9D9"/>
<rect x="36" y="39" width="1" height="1" fill="#D9D9D9"/>
<path d="M23 32V27.5H24.5V22H30V23H32V31H31V33H30V35.5V38.5H29V40H24V39H23V36H24V32H23Z" fill="var(--cat-color)"/>
<path d="M4 29V28H5V27H18V28H19V31H18V34H17V36H16V38H1V37H0V35H1V33H2V31H3V29H4Z" fill="#999797"/>
<path d="M0 37H1V38H16V44H15H2V43H1V42H0V37Z" fill="#605E5E"/>
<path d="M16 44H15V42H16V36H17V34H18V31H19V29H20V35.5H19V38.5H18V41H17V43H16V44Z" fill="#222222"/>
<rect x="2" y="37" width="13" height="1" fill="#D7D6D6"/>
<rect y="35" width="1" height="1" fill="#D9D9D9"/>
<rect x="1" y="36" width="1" height="1" fill="#D9D9D9"/>
<rect x="15" y="36" width="1" height="1" fill="#D9D9D9"/>
<rect x="16" y="35" width="1" height="1" fill="#D9D9D9"/>
<path d="M12 25V14H19V27.5H18V31H17V32H16V33H10V29H11V25H12Z" fill="var(--cat-color)"/>
<path d="M13 9H11V11H10V13H9V18H10V22H12V23H13V24H15V25H25V24H27V23H28V22H29V21H30V18H31V14H30V11H29V10H28V9H26V8H24V7H16V8H13V9Z" fill="var(--cat-color)"/>
<rect width="6" height="1" transform="translate(6 17)" fill="var(--cat-color)"/>
<rect width="6" height="1" transform="translate(7 19)" fill="var(--cat-color)"/>
<path d="M33 22V21H39V20H41V19H42V18H41V15H42V14H44V15H45V16H46V21H45V22H44V23H42V24H37V23H34V22H33Z" fill="var(--cat-color)"/>
<path d="M11 12V7H12V5H13V4H14V3H15V5H16V6H17V12H11Z" fill="var(--cat-color)"/>
<path d="M23 6V12H28V5H27V4H26V3H25V4H24V6H23Z" fill="var(--cat-color)"/>
<rect width="1" height="3" transform="translate(20 15)" fill="white"/>
<rect width="1" height="3" transform="translate(24 15)" fill="white"/>
<rect width="3" height="5" transform="translate(21 14)" fill="white"/>
<rect width="3" height="3" transform="translate(21 15)" fill="var(--cat-color)"/>
<rect width="1" height="3" transform="translate(11 15)" fill="white"/>
<rect width="1" height="3" transform="translate(15 15)" fill="white"/>
<rect width="3" height="5" transform="translate(12 14)" fill="white"/>
<rect width="3" height="3" transform="translate(12 15)" fill="var(--cat-color)"/>
</g>
</svg>
